<mxfile host="app.diagrams.net" modified="2021-03-28T11:41:24.810Z" agent="5.0 (X11)" etag="9Hv3fUxis6ghl90BvG7j" version="14.5.3" type="github">
  <diagram id="sQD6IDfBWvZd4eHeOA48" name="Page-1">
    <mxGraphModel dx="932" dy="634" grid="1" gridSize="10" guides="1" tooltips="1" connect="1" arrows="1" fold="1" page="1" pageScale="1" pageWidth="850" pageHeight="1100" math="0" shadow="0">
      <root>
        <mxCell id="0" />
        <mxCell id="1" parent="0" />
        <mxCell id="YpR-OqpzR6fRtDqDar1u-1" value="socket(AF_INET, SOCK_DGRAM)" style="rounded=0;whiteSpace=wrap;html=1;fillColor=#dae8fc;strokeColor=#6c8ebf;" vertex="1" parent="1">
          <mxGeometry x="165" y="120" width="200" height="30" as="geometry" />
        </mxCell>
        <mxCell id="YpR-OqpzR6fRtDqDar1u-2" value="" style="rounded=0;whiteSpace=wrap;html=1;fillColor=#dae8fc;strokeColor=#6c8ebf;" vertex="1" parent="1">
          <mxGeometry x="185" y="200" width="170" height="30" as="geometry" />
        </mxCell>
        <mxCell id="YpR-OqpzR6fRtDqDar1u-3" value="sendto(&quot;&quot;, (HOST, PORT))" style="rounded=0;whiteSpace=wrap;html=1;fillColor=#ffe6cc;strokeColor=#d79b00;" vertex="1" parent="1">
          <mxGeometry x="508" y="330" width="150" height="30" as="geometry" />
        </mxCell>
        <mxCell id="YpR-OqpzR6fRtDqDar1u-4" value="bind((HOST, PORT))" style="text;html=1;strokeColor=none;fillColor=none;align=center;verticalAlign=middle;whiteSpace=wrap;rounded=0;" vertex="1" parent="1">
          <mxGeometry x="200" y="205" width="140" height="20" as="geometry" />
        </mxCell>
        <mxCell id="YpR-OqpzR6fRtDqDar1u-7" value="addr = recvfrom(8)" style="rounded=0;whiteSpace=wrap;html=1;fillColor=#dae8fc;strokeColor=#6c8ebf;" vertex="1" parent="1">
          <mxGeometry x="185" y="280" width="170" height="30" as="geometry" />
        </mxCell>
        <mxCell id="YpR-OqpzR6fRtDqDar1u-9" value="&lt;div&gt;Server&lt;/div&gt;" style="text;html=1;strokeColor=none;fillColor=none;align=center;verticalAlign=middle;whiteSpace=wrap;rounded=0;" vertex="1" parent="1">
          <mxGeometry x="245" y="70" width="40" height="20" as="geometry" />
        </mxCell>
        <mxCell id="YpR-OqpzR6fRtDqDar1u-10" value="Client" style="text;html=1;strokeColor=none;fillColor=none;align=center;verticalAlign=middle;whiteSpace=wrap;rounded=0;" vertex="1" parent="1">
          <mxGeometry x="565" y="70" width="40" height="20" as="geometry" />
        </mxCell>
        <mxCell id="YpR-OqpzR6fRtDqDar1u-11" value="socket(AF_INET, SOCK_DGRAM)" style="rounded=0;whiteSpace=wrap;html=1;fillColor=#ffe6cc;strokeColor=#d79b00;" vertex="1" parent="1">
          <mxGeometry x="485" y="120" width="200" height="30" as="geometry" />
        </mxCell>
        <mxCell id="YpR-OqpzR6fRtDqDar1u-12" value="recvfrom(32)" style="rounded=0;whiteSpace=wrap;html=1;fillColor=#ffe6cc;strokeColor=#d79b00;" vertex="1" parent="1">
          <mxGeometry x="508" y="450" width="150" height="30" as="geometry" />
        </mxCell>
        <mxCell id="YpR-OqpzR6fRtDqDar1u-13" value="sendto(timestamp(), addr)" style="rounded=0;whiteSpace=wrap;html=1;fillColor=#dae8fc;strokeColor=#6c8ebf;" vertex="1" parent="1">
          <mxGeometry x="185" y="450" width="170" height="30" as="geometry" />
        </mxCell>
        <mxCell id="YpR-OqpzR6fRtDqDar1u-15" value="" style="endArrow=classic;html=1;exitX=0.5;exitY=1;exitDx=0;exitDy=0;" edge="1" parent="1" source="YpR-OqpzR6fRtDqDar1u-1">
          <mxGeometry width="50" height="50" relative="1" as="geometry">
            <mxPoint x="355" y="210" as="sourcePoint" />
            <mxPoint x="265" y="190" as="targetPoint" />
          </mxGeometry>
        </mxCell>
        <mxCell id="YpR-OqpzR6fRtDqDar1u-16" value="" style="endArrow=classic;html=1;exitX=0.5;exitY=1;exitDx=0;exitDy=0;" edge="1" parent="1">
          <mxGeometry width="50" height="50" relative="1" as="geometry">
            <mxPoint x="264.65999999999997" y="230" as="sourcePoint" />
            <mxPoint x="264.65999999999997" y="270" as="targetPoint" />
          </mxGeometry>
        </mxCell>
        <mxCell id="YpR-OqpzR6fRtDqDar1u-17" value="" style="endArrow=classic;html=1;exitX=0.5;exitY=1;exitDx=0;exitDy=0;" edge="1" parent="1">
          <mxGeometry width="50" height="50" relative="1" as="geometry">
            <mxPoint x="264.65999999999997" y="310" as="sourcePoint" />
            <mxPoint x="265" y="440" as="targetPoint" />
          </mxGeometry>
        </mxCell>
        <mxCell id="YpR-OqpzR6fRtDqDar1u-18" value="" style="endArrow=classic;html=1;exitX=0.5;exitY=1;exitDx=0;exitDy=0;" edge="1" parent="1" source="YpR-OqpzR6fRtDqDar1u-11">
          <mxGeometry width="50" height="50" relative="1" as="geometry">
            <mxPoint x="485" y="185" as="sourcePoint" />
            <mxPoint x="585" y="320" as="targetPoint" />
          </mxGeometry>
        </mxCell>
        <mxCell id="YpR-OqpzR6fRtDqDar1u-19" value="" style="endArrow=classic;html=1;exitX=0.5;exitY=1;exitDx=0;exitDy=0;" edge="1" parent="1">
          <mxGeometry width="50" height="50" relative="1" as="geometry">
            <mxPoint x="582.6600000000001" y="360" as="sourcePoint" />
            <mxPoint x="583" y="440" as="targetPoint" />
          </mxGeometry>
        </mxCell>
        <mxCell id="YpR-OqpzR6fRtDqDar1u-20" value="" style="endArrow=classic;html=1;exitX=0;exitY=0.5;exitDx=0;exitDy=0;dashed=1;" edge="1" parent="1" source="YpR-OqpzR6fRtDqDar1u-3">
          <mxGeometry width="50" height="50" relative="1" as="geometry">
            <mxPoint x="443" y="310" as="sourcePoint" />
            <mxPoint x="275" y="345" as="targetPoint" />
          </mxGeometry>
        </mxCell>
        <mxCell id="YpR-OqpzR6fRtDqDar1u-21" value="request" style="text;html=1;strokeColor=none;fillColor=none;align=center;verticalAlign=middle;whiteSpace=wrap;rounded=0;" vertex="1" parent="1">
          <mxGeometry x="413" y="320" width="40" height="20" as="geometry" />
        </mxCell>
        <mxCell id="YpR-OqpzR6fRtDqDar1u-23" value="" style="endArrow=classic;html=1;dashed=1;exitX=1;exitY=0.5;exitDx=0;exitDy=0;" edge="1" parent="1" source="YpR-OqpzR6fRtDqDar1u-13">
          <mxGeometry width="50" height="50" relative="1" as="geometry">
            <mxPoint x="415" y="460" as="sourcePoint" />
            <mxPoint x="505" y="465" as="targetPoint" />
          </mxGeometry>
        </mxCell>
        <mxCell id="YpR-OqpzR6fRtDqDar1u-24" value="response" style="text;html=1;strokeColor=none;fillColor=none;align=center;verticalAlign=middle;whiteSpace=wrap;rounded=0;" vertex="1" parent="1">
          <mxGeometry x="415" y="440" width="40" height="20" as="geometry" />
        </mxCell>
        <mxCell id="YpR-OqpzR6fRtDqDar1u-25" value="wait for empty UDP datagram" style="text;html=1;strokeColor=none;fillColor=none;align=center;verticalAlign=middle;whiteSpace=wrap;rounded=0;" vertex="1" parent="1">
          <mxGeometry x="120" y="330" width="130" height="20" as="geometry" />
        </mxCell>
      </root>
    </mxGraphModel>
  </diagram>
</mxfile>
